<svg id="Capa_1" enable-background="new 0 0 511.029 511.029" height="512" viewBox="0 0 511.029 511.029" width="512" xmlns="http://www.w3.org/2000/svg"><g><path d="m460.24 33.264c-53.931-53.934-143.326-39.961-179.508 25.141-51.913 93.437-128.863 170.393-222.314 222.314-65.825 36.584-78.546 126.101-25.14 179.508 36.731 36.732 86.99 14.688 130.29-9.354 14.486-8.047 32.941 12.29 46.376 3.741 157.95-129.324 146.324-119.727 147.293-120.737 47.573-49.568 88.609-105.15 121.971-165.204 24.064-43.334 17.737-98.705-18.968-135.409z" fill="#88d652"/><path d="m356.615 334.525c-157.869 129.252-146.259 119.821-147.425 120.569-13.117 8.351-26.75 16.454-40.503 24.098-49.691 27.602-113.551 14.598-147.807-33.623 169.637-105.955 315.759-250.281 424.703-424.702 48.343 34.341 61.159 98.233 33.623 147.806-34.533 62.177-75.357 116.468-122.591 165.852z" fill="#4fa811"/><path d="m496.014 400c0 78.73-89.315 123.085-152 77.98v-155.96c62.637-45.07 152-.797 152 77.98z" fill="#a5ed73"/><path d="m496.014 400c0 53.02-42.98 96-96 96v-192c53.02 0 96 42.98 96 96z" fill="#88d652"/><path d="m511.014 400c0 90.805-103.181 142.364-175.76 90.16l17.52-24.36c52.816 38.025 128.24.557 128.24-65.8 0-66.341-75.408-103.837-128.24-65.8l-17.52-24.36c72.62-52.233 175.76-.605 175.76 90.16z" fill="#88d652"/><path d="m511.014 400c0 61.21-49.79 111-111 111v-30c44.66 0 81-36.34 81-81s-36.34-81-81-81v-30c61.21 0 111 49.79 111 111z" fill="#4fa811"/><path d="m385.014 352h30v32h-30z" fill="#fff5f5"/><path d="m400.014 352h15v32h-15z" fill="#efe2dd"/><path d="m385.014 416h30v32h-30z" fill="#fff5f5"/><path d="m400.014 416h15v32h-15z" fill="#efe2dd"/><path d="m416.014 385h32v30h-32z" fill="#efe2dd"/><circle cx="288.014" cy="400" fill="#a5ed73" r="96"/><path d="m384.014 400c0 53.02-42.98 96-96 96v-192c53.02 0 96 42.98 96 96z" fill="#88d652"/><path d="m288.014 289c-61.21 0-111 49.79-111 111s49.79 111 111 111c0 0 103.468-49.793 103.468-111.003s-103.468-110.997-103.468-110.997zm0 192c-44.66 0-81-36.34-81-81s36.34-81 81-81 92.915 36.344 92.915 81.004-48.255 80.996-92.915 80.996z" fill="#88d652"/><path d="m399.014 400c0 61.21-49.79 111-111 111v-30c44.66 0 81-36.34 81-81s-36.34-81-81-81v-30c61.21 0 111 49.79 111 111z" fill="#4fa811"/><path d="m273.014 352h30v32h-30z" fill="#fff5f5"/><path d="m288.014 352h15v32h-15z" fill="#e1d3ce"/><path d="m273.014 416h30v32h-30z" fill="#fff5f5"/><path d="m288.014 416h15v32h-15z" fill="#e1d3ce"/><path d="m304.014 385h32v30h-32z" fill="#e1d3ce"/><path d="m240.014 385h32v30h-32z" fill="#fff5f5"/></g></svg>